<svg height="1166" width="720" xmlns="http://www.w3.org/2000/svg">
<rect height="1166" fill="#555" width="720"></rect>
<text fill="#7f7" font-family="Courier New" font-size="12" xml:space="preserve">
<tspan x="10" y="26">6 megabytes installed</tspan>
<tspan x="10" y="42"></tspan>
<tspan x="10" y="58">node_modules</tspan>
<tspan x="10" y="74">└─┬ functional-javascript-workshop@1.0.6 </tspan>
<tspan x="10" y="90">  ├─┬ deep-eql@0.1.3 </tspan>
<tspan x="10" y="106">  │ └── type-detect@0.1.1 </tspan>
<tspan x="10" y="122">  ├─┬ lorem-ipsum@1.0.3 </tspan>
<tspan x="10" y="138">  │ └─┬ optimist@0.3.7 </tspan>
<tspan x="10" y="154">  │   └── wordwrap@0.0.3 </tspan>
<tspan x="10" y="170">  ├─┬ workshopper@2.7.0 </tspan>
<tspan x="10" y="186">  │ ├─┬ chalk@0.4.0 </tspan>
<tspan x="10" y="202">  │ │ ├── ansi-styles@1.0.0 </tspan>
<tspan x="10" y="218">  │ │ ├── has-color@0.1.7 </tspan>
<tspan x="10" y="234">  │ │ └── strip-ansi@0.1.1 </tspan>
<tspan x="10" y="250">  │ ├─┬ colors-tmpl@0.1.1 </tspan>
<tspan x="10" y="266">  │ │ └── colors@0.6.2 </tspan>
<tspan x="10" y="282">  │ ├─┬ i18n-core@1.3.3 </tspan>
<tspan x="10" y="298">  │ │ ├── mustache@0.8.2 </tspan>
<tspan x="10" y="314">  │ │ └── sprintf@0.1.5 </tspan>
<tspan x="10" y="330">  │ ├── map-async@0.1.1 </tspan>
<tspan x="10" y="346">  │ ├── mkdirp@0.3.5 </tspan>
<tspan x="10" y="362">  │ ├─┬ msee@0.1.2 </tspan>
<tspan x="10" y="378">  │ │ ├─┬ cardinal@0.5.0 </tspan>
<tspan x="10" y="394">  │ │ │ ├── ansicolors@0.2.1 </tspan>
<tspan x="10" y="410">  │ │ │ └─┬ redeyed@0.5.0 </tspan>
<tspan x="10" y="426">  │ │ │   └── esprima-fb@12001.1.0-dev-harmony-fb </tspan>
<tspan x="10" y="442">  │ │ ├── marked@0.3.6 </tspan>
<tspan x="10" y="458">  │ │ ├─┬ nopt@2.1.2 </tspan>
<tspan x="10" y="474">  │ │ │ └── abbrev@1.1.0 </tspan>
<tspan x="10" y="490">  │ │ └─┬ xtend@2.1.2 </tspan>
<tspan x="10" y="506">  │ │   └── object-keys@0.4.0 </tspan>
<tspan x="10" y="522">  │ ├─┬ optimist@0.6.1 </tspan>
<tspan x="10" y="538">  │ │ └── minimist@0.0.10 </tspan>
<tspan x="10" y="554">  │ ├─┬ terminal-menu@2.1.1 </tspan>
<tspan x="10" y="570">  │ │ ├── charm@0.1.2 </tspan>
<tspan x="10" y="586">  │ │ ├─┬ duplexer2@0.0.2 </tspan>
<tspan x="10" y="602">  │ │ │ └─┬ readable-stream@1.1.14 </tspan>
<tspan x="10" y="618">  │ │ │   ├── isarray@0.0.1 </tspan>
<tspan x="10" y="634">  │ │ │   └── string_decoder@0.10.31 </tspan>
<tspan x="10" y="650">  │ │ ├── inherits@2.0.3 </tspan>
<tspan x="10" y="666">  │ │ ├── resumer@0.0.0 </tspan>
<tspan x="10" y="682">  │ │ └─┬ through2@0.6.5 </tspan>
<tspan x="10" y="698">  │ │   ├── readable-stream@1.0.34 </tspan>
<tspan x="10" y="714">  │ │   └── xtend@4.0.1 </tspan>
<tspan x="10" y="730">  │ ├── visualwidth@0.0.1 </tspan>
<tspan x="10" y="746">  │ └── xtend@3.0.0 </tspan>
<tspan x="10" y="762">  └─┬ workshopper-exercise@2.7.0 </tspan>
<tspan x="10" y="778">    ├── after@0.8.2 </tspan>
<tspan x="10" y="794">    ├─┬ chalk@1.1.3 </tspan>
<tspan x="10" y="810">    │ ├── ansi-styles@2.2.1 </tspan>
<tspan x="10" y="826">    │ ├── escape-string-regexp@1.0.5 </tspan>
<tspan x="10" y="842">    │ ├─┬ has-ansi@2.0.0 </tspan>
<tspan x="10" y="858">    │ │ └── ansi-regex@2.1.1 </tspan>
<tspan x="10" y="874">    │ ├── strip-ansi@3.0.1 </tspan>
<tspan x="10" y="890">    │ └── supports-color@2.0.0 </tspan>
<tspan x="10" y="906">    ├── i18n-core@2.1.1 </tspan>
<tspan x="10" y="922">    ├─┬ split@1.0.0 </tspan>
<tspan x="10" y="938">    │ └── through@2.3.8 </tspan>
<tspan x="10" y="954">    ├─┬ through2@2.0.3 </tspan>
<tspan x="10" y="970">    │ └─┬ readable-stream@2.2.9 </tspan>
<tspan x="10" y="986">    │   ├── buffer-shims@1.0.0 </tspan>
<tspan x="10" y="1002">    │   ├── core-util-is@1.0.2 </tspan>
<tspan x="10" y="1018">    │   ├── isarray@1.0.0 </tspan>
<tspan x="10" y="1034">    │   ├── process-nextick-args@1.0.7 </tspan>
<tspan x="10" y="1050">    │   ├── string_decoder@1.0.0 </tspan>
<tspan x="10" y="1066">    │   └── util-deprecate@1.0.2 </tspan>
<tspan x="10" y="1082">    ├── tuple-stream@0.0.2 </tspan>
<tspan x="10" y="1098">    ├─┬ wcstring@2.1.1 </tspan>
<tspan x="10" y="1114">    │ ├── varsize-string@2.2.2 </tspan>
<tspan x="10" y="1130">    │ └── wcsize@1.0.0 </tspan>
<tspan x="10" y="1146">    └── xtend@4.0.1</tspan>
</text>
</svg>
